<?xml version="1.0" encoding="UTF-8"?>
<svg id="Layer_1" xmlns="http://www.w3.org/2000/svg" version="1.1" viewBox="0 0 500 500">
  <!-- Generator: Adobe Illustrator 29.8.3, SVG Export Plug-In . SVG Version: 2.1.1 Build 3)  -->
  <defs>
    <style>
      .st0 {
        fill: #c9ac8b;
      }
    </style>
  </defs>
  <g>
    <path class="st0" d="M50.65,356.57c-16.41-9.22-29.02-22.69-37.82-40.39C4.03,298.48-.36,277.19-.36,252.3s4.45-46.55,13.36-65.01c8.9-18.45,21.61-32.61,38.14-42.48,16.52-9.87,35.83-14.8,57.93-14.8,12.01,0,23.44,1.02,34.27,3.06,10.83,2.04,20.65,4.34,29.45,6.92v69.19h-6.76l-10.62-32.5c-2.57-7.29-5.47-13.24-8.69-17.86-3.22-4.61-8.1-8.37-14.64-11.26-6.55-2.9-15.4-4.34-26.55-4.34-12.66,0-24.3,3.49-34.92,10.46-10.62,6.97-19.26,18.29-25.91,33.95-6.65,15.66-9.98,35.72-9.98,60.18s3.38,45.27,10.14,61.79c6.76,16.52,15.61,28.64,26.55,36.37,10.94,7.72,23.06,11.59,36.37,11.59,11.59,0,20.76-1.55,27.52-4.67,6.76-3.11,11.8-7.29,15.13-12.55,3.32-5.25,6.38-12.07,9.17-20.44l9.65-31.86h6.76v71.77c-7.72,2.58-17.59,4.99-29.61,7.24-12.02,2.25-24.46,3.38-37.33,3.38-22.53,0-42-4.62-58.41-13.84Z"/>
    <path class="st0" d="M316.88,358.82l21.88-6.12c5.36-1.71,8.85-4.13,10.46-7.24,1.61-3.11,2.41-7.77,2.41-14v-162.85c0-6.65-.97-11.42-2.9-14.32-1.93-2.9-5.26-4.99-9.98-6.28l-21.88-6.11v-5.79h108.78v5.79l-28,6.11c-5.15,1.08-8.64,3.22-10.46,6.44-1.82,3.22-2.74,7.94-2.74,14.16v184.41l66.62-4.83c7.29-.64,12.82-2.58,16.57-5.79,3.75-3.22,6.7-8.26,8.85-15.13l16.73-55.35h6.76v92.37h-183.12v-5.47Z"/>
  </g>
  <g>
    <circle class="st0" cx="249.82" cy="73.96" r="5.59"/>
    <circle class="st0" cx="249.82" cy="90.75" r="5.59"/>
    <circle class="st0" cx="249.82" cy="107.53" r="5.59"/>
    <rect class="st0" x="244.22" y="129.91" width="11.19" height="44.76"/>
    <rect class="st0" x="244.22" y="208.24" width="11.19" height="44.76"/>
    <circle class="st0" cx="249.82" cy="197.05" r="5.59"/>
    <rect class="st0" x="244.22" y="269.79" width="11.19" height="44.76"/>
    <rect class="st0" x="244.22" y="336.93" width="11.19" height="44.76"/>
    <circle class="st0" cx="249.82" cy="325.74" r="5.59"/>
    <rect class="st0" x="244.22" y="387.28" width="11.19" height="44.76"/>
  </g>
</svg>